<?xml version="1.0" standalone="no"?>
<!DOCTYPE svg PUBLIC "-//W3C//DTD SVG 20010904//EN"
 "http://www.w3.org/TR/2001/REC-SVG-20010904/DTD/svg10.dtd">
<svg version="1.0" xmlns="http://www.w3.org/2000/svg"
 width="696.000000pt" height="1067.000000pt" viewBox="0 0 696.000000 1067.000000"
 preserveAspectRatio="xMidYMid meet">

<g transform="translate(0.000000,1067.000000) scale(0.100000,-0.100000)"
fill="#000000" stroke="none">
<path d="M1873 10109 c-61 -24 -132 -89 -164 -150 -31 -61 -38 -187 -14 -258
35 -107 150 -196 269 -208 l51 -5 342 -476 342 -475 -33 -41 c-141 -173 -278
-458 -347 -720 -63 -243 -74 -333 -74 -651 0 -257 3 -304 23 -415 69 -383 196
-691 387 -940 l43 -56 -474 -659 -475 -660 -67 -6 c-169 -14 -280 -129 -290
-298 -7 -136 56 -247 174 -306 50 -25 71 -29 139 -29 71 -1 88 3 147 32 104
51 165 139 175 252 3 32 0 80 -6 105 l-12 46 442 647 c243 356 446 651 450
656 5 6 26 -3 51 -20 334 -236 706 -274 1055 -109 51 24 128 68 170 97 104 71
263 231 343 346 35 50 68 92 71 92 4 0 80 -102 169 -226 l163 -226 -12 -38
c-31 -104 1 -227 75 -288 162 -134 403 -38 421 168 8 83 -11 141 -64 200 -53
59 -108 82 -199 84 l-67 1 -165 240 c-90 132 -194 282 -229 334 l-65 93 -54
-102 c-179 -343 -462 -582 -764 -646 -97 -20 -259 -18 -359 6 -373 90 -698
440 -860 925 -93 279 -129 597 -100 891 63 651 392 1187 838 1366 346 139 727
36 1016 -275 85 -90 185 -235 236 -340 18 -37 37 -66 41 -65 4 2 80 111 170
243 90 133 199 293 243 358 l80 117 63 0 c76 0 124 19 176 68 52 50 76 104 76
176 0 79 -16 128 -59 177 -87 103 -246 118 -356 35 -82 -63 -117 -191 -80
-294 l18 -49 -172 -239 c-95 -132 -176 -240 -181 -242 -5 -2 -14 7 -21 20 -24
46 -120 169 -186 239 -164 173 -357 290 -581 351 -119 32 -343 30 -474 -5
-118 -31 -238 -86 -342 -156 -43 -29 -79 -51 -81 -49 -24 28 -618 906 -617
913 1 6 9 37 18 70 30 107 -2 222 -86 306 -85 85 -229 113 -347 68z"/>
<path d="M3637 8146 c-157 -56 -210 -265 -100 -387 119 -132 329 -107 404 48
28 58 30 149 5 208 -49 114 -189 174 -309 131z"/>
<path d="M3590 6780 l0 -660 135 0 135 0 0 660 0 660 -135 0 -135 0 0 -660z"/>
<path d="M376 3109 c-56 -66 -13 -159 74 -159 58 0 90 33 90 95 0 63 -31 95
-94 95 -37 0 -48 -5 -70 -31z"/>
<path d="M5592 3088 c23 -29 121 -144 217 -257 95 -114 175 -211 178 -218 2
-6 -95 -129 -216 -272 -122 -144 -221 -263 -221 -266 0 -3 38 -5 84 -5 l84 0
181 215 c100 118 183 215 185 215 2 0 85 -97 185 -215 l181 -215 80 0 c44 0
80 4 80 9 0 9 -148 187 -361 437 l-78 91 219 259 c121 142 219 262 220 267 0
4 -37 7 -83 7 l-83 0 -89 -107 c-50 -59 -131 -155 -181 -214 l-91 -107 -179
214 -179 213 -88 1 -89 0 44 -52z"/>
<path d="M919 3106 c-69 -28 -105 -53 -154 -107 -81 -90 -121 -247 -112 -434
12 -231 84 -368 232 -442 69 -35 137 -43 375 -43 l230 0 0 59 0 59 -227 4
c-226 3 -228 3 -285 31 -106 52 -147 123 -170 295 -12 83 -3 198 22 283 24 84
106 166 189 189 20 5 134 10 254 10 l217 0 0 60 0 60 -257 0 c-246 0 -261 -2
-314 -24z"/>
<path d="M3070 2605 l0 -525 243 0 c133 0 258 5 278 10 83 23 159 108 195 217
27 81 27 255 0 336 -26 80 -82 155 -140 192 l-49 30 -199 3 -198 4 0 129 0
129 -65 0 -65 0 0 -525z m497 117 c68 -48 114 -199 94 -308 -14 -74 -58 -162
-94 -189 -25 -18 -46 -20 -198 -23 l-169 -4 0 277 0 277 168 -4 c155 -3 169
-5 199 -26z"/>
<path d="M1620 2810 l0 -60 271 0 271 0 29 -29 c27 -27 29 -35 29 -105 l0 -76
-206 0 c-116 0 -224 -5 -249 -11 -55 -14 -122 -70 -146 -123 -39 -86 -17 -197
52 -263 62 -58 91 -63 395 -63 l274 0 0 319 c0 202 -4 330 -11 348 -15 40 -57
82 -104 104 -36 17 -69 19 -322 19 l-283 0 0 -60z m600 -500 l0 -100 -187 -1
c-235 -2 -222 -3 -258 32 -43 42 -42 100 3 140 l32 29 205 0 205 0 0 -100z"/>
<path d="M2450 2476 l0 -396 60 0 60 0 0 336 0 336 114 -4 c139 -4 156 -14
156 -90 l0 -48 66 0 67 0 -6 66 c-6 77 -39 134 -97 169 -31 18 -55 20 -227 23
l-193 4 0 -396z"/>
<path d="M4215 2856 c-220 -54 -345 -282 -277 -504 88 -281 460 -365 661 -147
206 223 95 586 -201 655 -56 13 -121 11 -183 -4z m207 -138 c93 -39 158 -139
158 -243 0 -105 -56 -192 -155 -242 -159 -82 -360 31 -382 215 -15 129 87 266
217 291 55 11 100 5 162 -21z"/>
<path d="M4810 2476 l0 -396 60 0 60 0 0 335 0 335 170 0 c178 0 219 -8 234
-45 3 -9 6 -154 6 -321 l0 -304 60 0 60 0 0 325 c0 371 -2 379 -82 432 l-41
28 -264 3 -263 3 0 -395z"/>
<path d="M380 2465 l0 -385 65 0 65 0 0 385 0 385 -65 0 -65 0 0 -385z"/>
<path d="M1700 1461 c0 -97 13 -127 70 -156 41 -21 385 -22 435 -1 55 23 75
66 75 164 l0 82 -45 0 -45 0 0 -61 c0 -90 -8 -99 -85 -99 l-65 0 0 58 c0 93
-5 102 -56 102 l-44 0 0 -80 0 -80 -69 0 c-80 0 -81 1 -81 96 l0 64 -45 0 -45
0 0 -89z"/>
<path d="M3625 1483 c-15 -38 -29 -74 -32 -80 -4 -10 21 -13 106 -13 l111 0 0
-45 0 -45 -110 0 -110 0 0 -45 0 -45 88 0 87 -1 -43 -39 c-23 -21 -67 -49 -97
-61 -59 -24 -58 -22 -34 -86 11 -30 18 -29 98 9 40 19 88 53 122 87 l55 56 98
-82 c53 -46 101 -83 105 -83 5 0 20 15 35 34 l26 35 -74 63 -74 63 69 3 69 3
0 44 0 45 -110 0 -110 0 0 45 0 45 100 0 100 0 0 45 0 45 -186 0 -185 0 7 23
c4 12 9 28 11 35 4 8 -9 12 -45 12 l-50 0 -27 -67z"/>
<path d="M4772 1387 c-23 -89 -42 -165 -42 -169 0 -5 87 -8 193 -8 216 0 243
7 284 69 19 29 23 47 23 117 l0 84 -45 0 -45 0 0 -69 c0 -63 -2 -71 -26 -90
-24 -19 -40 -21 -145 -21 -66 0 -119 3 -119 8 0 4 14 54 30 112 17 58 30 111
30 118 0 8 -16 12 -47 12 l-48 0 -43 -163z"/>
<path d="M5290 1357 c0 -180 1 -196 23 -237 36 -71 64 -80 249 -80 l158 0 0
45 0 45 -143 0 c-184 0 -187 1 -187 109 l0 78 165 44 165 44 0 47 c0 32 -4 48
-12 48 -7 0 -78 -18 -158 -40 -80 -22 -148 -40 -152 -40 -5 0 -8 29 -8 65 l0
65 -50 0 -50 0 0 -193z"/>
<path d="M4214 1504 c-57 -28 -64 -54 -64 -237 0 -153 1 -166 22 -192 34 -43
75 -55 190 -54 124 0 165 13 195 58 22 32 23 44 23 190 0 177 -10 210 -75 237
-48 20 -249 19 -291 -2z m266 -103 c5 -11 10 -70 10 -131 0 -61 -5 -120 -10
-131 -10 -17 -22 -19 -113 -19 -67 0 -107 4 -115 12 -13 13 -18 269 -5 281 3
4 55 7 114 7 97 0 109 -2 119 -19z"/>
<path d="M2480 1455 l0 -45 450 0 450 0 0 45 0 45 -450 0 -450 0 0 -45z"/>
<path d="M1300 1445 l0 -45 45 0 c44 0 45 -1 45 -32 0 -59 -40 -199 -80 -286
-22 -47 -40 -85 -40 -86 0 -1 20 -12 45 -26 l45 -25 0 -173 0 -174 29 -29 c28
-28 34 -29 116 -29 78 0 88 2 110 25 27 26 31 25 15 -6 -10 -18 -7 -19 49 -19
l60 0 19 63 c26 82 50 229 57 347 3 52 8 119 11 148 l5 52 225 0 224 0 0 45 0
45 -277 -2 -278 -3 -7 -155 c-8 -177 -22 -294 -46 -395 l-17 -70 -5 283 -5
284 -33 29 c-27 25 -41 29 -88 29 -53 0 -56 1 -51 23 3 12 9 48 12 80 l7 57
79 0 79 0 0 45 0 45 -175 0 -175 0 0 -45z m250 -556 l0 -260 -47 3 -48 3 -3
245 c-1 134 0 250 3 257 2 8 22 13 50 13 l45 0 0 -261z"/>
<path d="M2440 1150 l0 -50 90 0 c50 0 90 -2 90 -5 0 -3 -27 -127 -60 -275
-33 -148 -60 -272 -60 -275 0 -3 175 -5 389 -5 l389 0 32 26 c53 45 60 70 60
214 l0 130 -44 0 -44 0 -4 -126 c-3 -111 -5 -127 -22 -140 -16 -11 -79 -14
-334 -14 -294 0 -313 1 -308 18 3 9 24 98 46 197 23 99 45 197 51 218 l10 37
349 0 350 0 0 50 0 50 -490 0 -490 0 0 -50z"/>
<path d="M4810 1167 c-19 -7 -44 -27 -57 -46 -23 -33 -23 -39 -23 -312 l0
-279 51 0 52 0 -5 75 -5 75 159 0 158 0 0 -75 0 -75 45 0 45 0 0 278 c0 298
-2 308 -53 346 -26 19 -44 21 -180 23 -101 2 -164 -1 -187 -10z m318 -99 c7
-7 12 -29 12 -50 l0 -38 -160 0 -160 0 0 31 c0 66 6 69 158 69 94 0 142 -4
150 -12z m12 -238 l0 -60 -160 0 -160 0 0 60 0 60 160 0 160 0 0 -60z"/>
<path d="M2007 1012 c-10 -177 -54 -278 -155 -359 -26 -20 -49 -38 -50 -39 -7
-5 9 -39 28 -63 20 -23 21 -23 47 -6 47 31 115 99 148 147 l31 47 73 -95 c40
-52 79 -98 86 -100 7 -3 34 -4 60 -2 l47 3 -113 150 -113 150 3 138 3 137 -45
0 -44 0 -6 -108z"/>
<path d="M1859 947 c-9 -45 -20 -90 -24 -99 -6 -16 -1 -18 43 -18 47 0 51 2
62 33 6 17 14 62 17 100 l6 67 -44 0 -44 0 -16 -83z"/>
<path d="M2155 983 c-3 -27 -10 -67 -15 -90 -15 -62 -14 -63 39 -63 l48 0 12
57 c6 31 11 76 11 100 l0 43 -44 0 -45 0 -6 -47z"/>
<path d="M5292 836 c8 -287 16 -296 272 -296 l156 0 0 45 0 45 -145 0 c-176 0
-185 5 -185 99 l0 59 118 32 c64 17 137 37 162 44 l45 13 3 51 c2 39 0 51 -10
47 -20 -7 -307 -85 -313 -85 -3 0 -5 32 -5 70 l0 70 -51 0 -52 0 5 -194z"/>
<path d="M3699 975 c-50 -27 -61 -71 -57 -223 5 -229 -4 -224 458 -220 304 3
337 5 362 21 47 32 58 72 58 206 0 135 -10 174 -55 209 -27 22 -33 22 -384 22
-288 -1 -361 -4 -382 -15z m719 -122 l3 -43 -340 0 -341 0 0 38 c0 21 3 42 7
45 4 4 155 6 337 5 l331 -3 3 -42z m0 -175 l-3 -43 -335 0 -335 0 -3 43 -3 42
341 0 341 0 -3 -42z"/>
</g>
</svg>
